<svg width="176" height="29" viewBox="0 0 176 29" fill="none" xmlns="http://www.w3.org/2000/svg">
<path d="M2.30476 28.2857H0V0H23.8857V2.30476H2.30476V28.2857Z" fill="#29F4D5"/>
<path d="M17.9143 13.5143H7.64762V15.6095H17.9143V13.5143Z" fill="#29F4D5"/>
<path d="M31.9524 0.104736H29.6476V28.2857H31.9524V0.104736Z" fill="#29F4D5"/>
<path d="M39.1809 28.2857H36.4571L53.8476 0H56.3619L66 15.9238H63.0667L55 2.72381L39.1809 28.2857Z" fill="#29F4D5"/>
<path d="M70.819 28.2857L66.3143 20.7429H69.1429L73.7524 28.2857H70.819Z" fill="#29F4D5"/>
<path d="M80.0381 28.2857H77.5364C77.5405 18.8571 77.5464 0 77.5364 0H95.3333C98.581 0.139683 105.055 1.8019 104.971 7.33333V10.0571C104.762 12.3968 102.541 17.2648 95.3333 18.019H87.1619V15.7143H95.3333C97.6032 15.3651 102.185 13.7448 102.352 10.0571V7.33333C102.073 5.65714 100.278 2.30476 95.3333 2.30476H80.0381L80.0381 28.2857Z" fill="#29F4D5"/>
<path d="M117.962 19.9047V8.38086H176V19.9047H117.962Z" fill="#ED145B"/>
<path d="M164.895 17.3905H169.295V16.2127H166.106V10.8953H164.895V17.3905Z" fill="black"/>
<path d="M136.991 12.3037C137.306 12.4804 137.557 12.7179 137.745 13.0161L138.705 12.4114C138.561 12.1849 138.39 11.9778 138.192 11.79C137.998 11.6022 137.783 11.4421 137.546 11.3095C137.309 11.1769 137.055 11.0748 136.784 11.003C136.519 10.9312 136.243 10.8953 135.956 10.8953C135.498 10.8953 135.065 10.9781 134.657 11.1438C134.254 11.3095 133.901 11.5387 133.597 11.8314C133.299 12.1186 133.062 12.4611 132.885 12.8587C132.714 13.2564 132.629 13.6845 132.629 14.1429C132.629 14.6013 132.714 15.0294 132.885 15.427C133.062 15.8247 133.299 16.1699 133.597 16.4626C133.901 16.7498 134.254 16.9763 134.657 17.142C135.065 17.3077 135.498 17.3905 135.956 17.3905C136.243 17.3905 136.519 17.3546 136.784 17.2828C137.055 17.211 137.309 17.1088 137.546 16.9763C137.783 16.8437 137.998 16.6863 138.192 16.504C138.39 16.3162 138.561 16.1064 138.705 15.8744L137.745 15.2779C137.557 15.5761 137.306 15.8164 136.991 15.9987C136.682 16.1754 136.337 16.2638 135.956 16.2638C135.664 16.2638 135.388 16.2085 135.129 16.0981C134.875 15.9876 134.651 15.8385 134.458 15.6507C134.27 15.4574 134.121 15.2309 134.011 14.9713C133.901 14.7118 133.845 14.4356 133.845 14.1429C133.845 13.8502 133.901 13.5768 134.011 13.3227C134.121 13.0631 134.27 12.8394 134.458 12.6516C134.651 12.4583 134.875 12.3064 135.129 12.196C135.388 12.0855 135.664 12.0303 135.956 12.0303C136.337 12.0303 136.682 12.1214 136.991 12.3037Z" fill="black"/>
<path d="M129.363 11.9943C129.621 12.0855 129.844 12.2081 130.033 12.362L130.712 11.4041C130.42 11.1818 130.088 11.0079 129.715 10.8825C129.343 10.7513 128.942 10.6858 128.513 10.6858C128.204 10.6858 127.911 10.7343 127.637 10.8312C127.362 10.9224 127.121 11.0535 126.915 11.2246C126.709 11.3899 126.546 11.5866 126.425 11.8146C126.305 12.037 126.245 12.2793 126.245 12.5416C126.245 12.7753 126.285 12.9891 126.365 13.183C126.451 13.3768 126.563 13.5479 126.7 13.6961C126.843 13.8443 127.01 13.9726 127.199 14.0809C127.393 14.1835 127.602 14.2634 127.826 14.3204L128.925 14.6026C129.143 14.6596 129.312 14.7423 129.432 14.8506C129.558 14.9532 129.638 15.0644 129.672 15.1842C129.707 15.3039 129.704 15.4264 129.664 15.5519C129.624 15.6773 129.549 15.7913 129.441 15.894C129.337 15.9909 129.206 16.0736 129.045 16.142C128.891 16.2047 128.713 16.236 128.513 16.236C128.169 16.236 127.851 16.179 127.559 16.065C127.267 15.951 127.021 15.7942 126.821 15.5946L126.133 16.561C126.443 16.8176 126.8 17.02 127.207 17.1682C127.614 17.3165 128.049 17.3906 128.513 17.3906C128.851 17.3906 129.166 17.3392 129.458 17.2366C129.755 17.134 130.013 16.9943 130.231 16.8176C130.454 16.6351 130.629 16.4242 130.755 16.1847C130.887 15.9396 130.952 15.6745 130.952 15.3894C130.952 15.1271 130.904 14.8905 130.806 14.6796C130.715 14.4686 130.589 14.2833 130.428 14.1237C130.268 13.9641 130.079 13.8301 129.861 13.7218C129.644 13.6134 129.412 13.5279 129.166 13.4652L128.135 13.2001C127.848 13.1203 127.66 13.0062 127.568 12.858C127.482 12.7098 127.465 12.5615 127.516 12.4133C127.574 12.2651 127.691 12.1368 127.869 12.0285C128.046 11.9144 128.261 11.8574 128.513 11.8574C128.822 11.8574 129.106 11.903 129.363 11.9943Z" fill="black"/>
<path d="M144.264 14.8175V17.3905H145.41V11.1047H144.264V13.6693H141.752V11.1047H140.59V17.3905H141.752V14.8175H144.264Z" fill="black"/>
<path fill-rule="evenodd" clip-rule="evenodd" d="M154.21 14.1429C154.21 14.6013 154.121 15.0294 153.943 15.427C153.77 15.8247 153.531 16.1699 153.226 16.4626C152.925 16.7498 152.57 16.9763 152.158 17.142C151.752 17.3077 151.319 17.3905 150.857 17.3905C150.39 17.3905 149.954 17.3077 149.548 17.142C149.142 16.9763 148.786 16.7498 148.481 16.4626C148.18 16.1699 147.941 15.8247 147.763 15.427C147.591 15.0294 147.505 14.6013 147.505 14.1429C147.505 13.6845 147.591 13.2564 147.763 12.8587C147.941 12.4611 148.18 12.1186 148.481 11.8314C148.786 11.5387 149.142 11.3095 149.548 11.1438C149.954 10.9781 150.39 10.8953 150.857 10.8953C151.319 10.8953 151.752 10.9781 152.158 11.1438C152.57 11.3095 152.925 11.5387 153.226 11.8314C153.531 12.1186 153.77 12.4611 153.943 12.8587C154.121 13.2564 154.21 13.6845 154.21 14.1429ZM152.825 13.3227C152.936 13.5768 152.992 13.8502 152.992 14.1429C152.992 14.4356 152.936 14.7118 152.825 14.9713C152.714 15.2309 152.561 15.4574 152.367 15.6507C152.178 15.8385 151.952 15.9876 151.691 16.0981C151.43 16.2085 151.152 16.2638 150.857 16.2638C150.563 16.2638 150.285 16.2085 150.023 16.0981C149.768 15.9876 149.542 15.8385 149.348 15.6507C149.159 15.4574 149.009 15.2309 148.898 14.9713C148.786 14.7118 148.731 14.4356 148.731 14.1429C148.731 13.8502 148.786 13.5768 148.898 13.3227C149.009 13.0631 149.159 12.8394 149.348 12.6516C149.542 12.4583 149.768 12.3064 150.023 12.196C150.285 12.0855 150.563 12.0303 150.857 12.0303C151.152 12.0303 151.43 12.0855 151.691 12.196C151.952 12.3064 152.178 12.4583 152.367 12.6516C152.561 12.8394 152.714 13.0631 152.825 13.3227Z" fill="black"/>
<path fill-rule="evenodd" clip-rule="evenodd" d="M162.59 14.1429C162.59 14.6013 162.502 15.0294 162.324 15.427C162.151 15.8247 161.912 16.1699 161.606 16.4626C161.306 16.7498 160.95 16.9763 160.539 17.142C160.133 17.3077 159.7 17.3905 159.238 17.3905C158.771 17.3905 158.335 17.3077 157.929 17.142C157.523 16.9763 157.167 16.7498 156.861 16.4626C156.561 16.1699 156.322 15.8247 156.144 15.427C155.972 15.0294 155.886 14.6013 155.886 14.1429C155.886 13.6845 155.972 13.2564 156.144 12.8587C156.322 12.4611 156.561 12.1186 156.861 11.8314C157.167 11.5387 157.523 11.3095 157.929 11.1438C158.335 10.9781 158.771 10.8953 159.238 10.8953C159.7 10.8953 160.133 10.9781 160.539 11.1438C160.95 11.3095 161.306 11.5387 161.606 11.8314C161.912 12.1186 162.151 12.4611 162.324 12.8587C162.502 13.2564 162.59 13.6845 162.59 14.1429ZM161.206 13.3227C161.317 13.5768 161.373 13.8502 161.373 14.1429C161.373 14.4356 161.317 14.7118 161.206 14.9713C161.095 15.2309 160.942 15.4574 160.748 15.6507C160.559 15.8385 160.333 15.9876 160.072 16.0981C159.811 16.2085 159.533 16.2638 159.238 16.2638C158.944 16.2638 158.666 16.2085 158.404 16.0981C158.148 15.9876 157.923 15.8385 157.729 15.6507C157.54 15.4574 157.39 15.2309 157.278 14.9713C157.167 14.7118 157.112 14.4356 157.112 14.1429C157.112 13.8502 157.167 13.5768 157.278 13.3227C157.39 13.0631 157.54 12.8394 157.729 12.6516C157.923 12.4583 158.148 12.3064 158.404 12.196C158.666 12.0855 158.944 12.0303 159.238 12.0303C159.533 12.0303 159.811 12.0855 160.072 12.196C160.333 12.3064 160.559 12.4583 160.748 12.6516C160.942 12.8394 161.095 13.0631 161.206 13.3227Z" fill="black"/>
</svg>
